<mxfile host="65bd71144e">
    <diagram id="DG29zkasTYF417EpR1eE" name="Page-1">
        <mxGraphModel dx="1130" dy="627" grid="1" gridSize="10" guides="1" tooltips="1" connect="1" arrows="1" fold="1" page="1" pageScale="1" pageWidth="850" pageHeight="1100" math="0" shadow="0">
            <root>
                <mxCell id="0"/>
                <mxCell id="1" parent="0"/>
                <mxCell id="2" value="Customer" style="swimlane;fontStyle=0;childLayout=stackLayout;horizontal=1;startSize=26;fillColor=none;horizontalStack=0;resizeParent=1;resizeParentMax=0;resizeLast=0;collapsible=1;marginBottom=0;" parent="1" vertex="1">
                    <mxGeometry x="130" y="116.57" width="140" height="156" as="geometry"/>
                </mxCell>
                <mxCell id="3" value="_id : Objectid" style="text;strokeColor=none;fillColor=none;align=left;verticalAlign=top;spacingLeft=4;spacingRight=4;overflow=hidden;rotatable=0;points=[[0,0.5],[1,0.5]];portConstraint=eastwest;" parent="2" vertex="1">
                    <mxGeometry y="26" width="140" height="26" as="geometry"/>
                </mxCell>
                <mxCell id="4" value="name: String" style="text;strokeColor=none;fillColor=none;align=left;verticalAlign=top;spacingLeft=4;spacingRight=4;overflow=hidden;rotatable=0;points=[[0,0.5],[1,0.5]];portConstraint=eastwest;" parent="2" vertex="1">
                    <mxGeometry y="52" width="140" height="26" as="geometry"/>
                </mxCell>
                <mxCell id="5" value="phone: String" style="text;strokeColor=none;fillColor=none;align=left;verticalAlign=top;spacingLeft=4;spacingRight=4;overflow=hidden;rotatable=0;points=[[0,0.5],[1,0.5]];portConstraint=eastwest;" parent="2" vertex="1">
                    <mxGeometry y="78" width="140" height="26" as="geometry"/>
                </mxCell>
                <mxCell id="6" value="id_document: String" style="text;strokeColor=none;fillColor=none;align=left;verticalAlign=top;spacingLeft=4;spacingRight=4;overflow=hidden;rotatable=0;points=[[0,0.5],[1,0.5]];portConstraint=eastwest;" parent="2" vertex="1">
                    <mxGeometry y="104" width="140" height="26" as="geometry"/>
                </mxCell>
                <mxCell id="54" value="email: String" style="text;strokeColor=none;fillColor=none;align=left;verticalAlign=top;spacingLeft=4;spacingRight=4;overflow=hidden;rotatable=0;points=[[0,0.5],[1,0.5]];portConstraint=eastwest;" vertex="1" parent="2">
                    <mxGeometry y="130" width="140" height="26" as="geometry"/>
                </mxCell>
                <mxCell id="8" value="Sale" style="swimlane;fontStyle=0;childLayout=stackLayout;horizontal=1;startSize=26;fillColor=none;horizontalStack=0;resizeParent=1;resizeParentMax=0;resizeLast=0;collapsible=1;marginBottom=0;" parent="1" vertex="1">
                    <mxGeometry x="480" y="220" width="140" height="130" as="geometry">
                        <mxRectangle x="470" y="220" width="60" height="30" as="alternateBounds"/>
                    </mxGeometry>
                </mxCell>
                <mxCell id="9" value="_id: Objectid" style="text;strokeColor=none;fillColor=none;align=left;verticalAlign=top;spacingLeft=4;spacingRight=4;overflow=hidden;rotatable=0;points=[[0,0.5],[1,0.5]];portConstraint=eastwest;" parent="8" vertex="1">
                    <mxGeometry y="26" width="140" height="26" as="geometry"/>
                </mxCell>
                <mxCell id="10" value="datetime: Date Time" style="text;strokeColor=none;fillColor=none;align=left;verticalAlign=top;spacingLeft=4;spacingRight=4;overflow=hidden;rotatable=0;points=[[0,0.5],[1,0.5]];portConstraint=eastwest;" parent="8" vertex="1">
                    <mxGeometry y="52" width="140" height="26" as="geometry"/>
                </mxCell>
                <mxCell id="36" value="number: Number" style="text;strokeColor=none;fillColor=none;align=left;verticalAlign=top;spacingLeft=4;spacingRight=4;overflow=hidden;rotatable=0;points=[[0,0.5],[1,0.5]];portConstraint=eastwest;" parent="8" vertex="1">
                    <mxGeometry y="78" width="140" height="26" as="geometry"/>
                </mxCell>
                <mxCell id="11" value="customer_id: Objectid" style="text;strokeColor=none;fillColor=none;align=left;verticalAlign=top;spacingLeft=4;spacingRight=4;overflow=hidden;rotatable=0;points=[[0,0.5],[1,0.5]];portConstraint=eastwest;" parent="8" vertex="1">
                    <mxGeometry y="104" width="140" height="26" as="geometry"/>
                </mxCell>
                <mxCell id="13" value="n" style="endArrow=open;html=1;endSize=12;startArrow=diamondThin;startSize=14;startFill=1;edgeStyle=orthogonalEdgeStyle;align=left;verticalAlign=bottom;exitX=0;exitY=0.096;exitDx=0;exitDy=0;exitPerimeter=0;" parent="1" source="8" edge="1" target="2">
                    <mxGeometry x="-0.8824" y="-10" relative="1" as="geometry">
                        <mxPoint x="440" y="230" as="sourcePoint"/>
                        <mxPoint x="310" y="230" as="targetPoint"/>
                        <mxPoint as="offset"/>
                        <Array as="points">
                            <mxPoint x="395" y="233"/>
                            <mxPoint x="395" y="130"/>
                            <mxPoint x="310" y="130"/>
                            <mxPoint x="310" y="195"/>
                        </Array>
                    </mxGeometry>
                </mxCell>
                <mxCell id="14" value="Product" style="swimlane;fontStyle=0;childLayout=stackLayout;horizontal=1;startSize=26;fillColor=none;horizontalStack=0;resizeParent=1;resizeParentMax=0;resizeLast=0;collapsible=1;marginBottom=0;" parent="1" vertex="1">
                    <mxGeometry x="690" y="450" width="140" height="156" as="geometry"/>
                </mxCell>
                <mxCell id="15" value="_id: Objectid" style="text;strokeColor=none;fillColor=none;align=left;verticalAlign=top;spacingLeft=4;spacingRight=4;overflow=hidden;rotatable=0;points=[[0,0.5],[1,0.5]];portConstraint=eastwest;" parent="14" vertex="1">
                    <mxGeometry y="26" width="140" height="26" as="geometry"/>
                </mxCell>
                <mxCell id="16" value="description: String" style="text;strokeColor=none;fillColor=none;align=left;verticalAlign=top;spacingLeft=4;spacingRight=4;overflow=hidden;rotatable=0;points=[[0,0.5],[1,0.5]];portConstraint=eastwest;" parent="14" vertex="1">
                    <mxGeometry y="52" width="140" height="26" as="geometry"/>
                </mxCell>
                <mxCell id="17" value="unit: String" style="text;strokeColor=none;fillColor=none;align=left;verticalAlign=top;spacingLeft=4;spacingRight=4;overflow=hidden;rotatable=0;points=[[0,0.5],[1,0.5]];portConstraint=eastwest;" parent="14" vertex="1">
                    <mxGeometry y="78" width="140" height="26" as="geometry"/>
                </mxCell>
                <mxCell id="18" value="price: Number" style="text;strokeColor=none;fillColor=none;align=left;verticalAlign=top;spacingLeft=4;spacingRight=4;overflow=hidden;rotatable=0;points=[[0,0.5],[1,0.5]];portConstraint=eastwest;" parent="14" vertex="1">
                    <mxGeometry y="104" width="140" height="26" as="geometry"/>
                </mxCell>
                <mxCell id="38" value="supplier_id: Objectid" style="text;strokeColor=none;fillColor=none;align=left;verticalAlign=top;spacingLeft=4;spacingRight=4;overflow=hidden;rotatable=0;points=[[0,0.5],[1,0.5]];portConstraint=eastwest;" parent="14" vertex="1">
                    <mxGeometry y="130" width="140" height="26" as="geometry"/>
                </mxCell>
                <mxCell id="19" value="Saleitem" style="swimlane;fontStyle=0;childLayout=stackLayout;horizontal=1;startSize=26;fillColor=none;horizontalStack=0;resizeParent=1;resizeParentMax=0;resizeLast=0;collapsible=1;marginBottom=0;" parent="1" vertex="1">
                    <mxGeometry x="470" y="440" width="140" height="104" as="geometry"/>
                </mxCell>
                <mxCell id="21" value="order: Number" style="text;strokeColor=none;fillColor=none;align=left;verticalAlign=top;spacingLeft=4;spacingRight=4;overflow=hidden;rotatable=0;points=[[0,0.5],[1,0.5]];portConstraint=eastwest;" parent="19" vertex="1">
                    <mxGeometry y="26" width="140" height="26" as="geometry"/>
                </mxCell>
                <mxCell id="37" value="quantify: Number" style="text;strokeColor=none;fillColor=none;align=left;verticalAlign=top;spacingLeft=4;spacingRight=4;overflow=hidden;rotatable=0;points=[[0,0.5],[1,0.5]];portConstraint=eastwest;" parent="19" vertex="1">
                    <mxGeometry y="52" width="140" height="26" as="geometry"/>
                </mxCell>
                <mxCell id="22" value="product_id: Objectid" style="text;strokeColor=none;fillColor=none;align=left;verticalAlign=top;spacingLeft=4;spacingRight=4;overflow=hidden;rotatable=0;points=[[0,0.5],[1,0.5]];portConstraint=eastwest;" parent="19" vertex="1">
                    <mxGeometry y="78" width="140" height="26" as="geometry"/>
                </mxCell>
                <mxCell id="23" value="n" style="endArrow=open;html=1;endSize=12;startArrow=diamondThin;startSize=14;startFill=1;edgeStyle=orthogonalEdgeStyle;align=left;verticalAlign=bottom;entryX=0.429;entryY=0.846;entryDx=0;entryDy=0;entryPerimeter=0;" parent="1" target="11" edge="1">
                    <mxGeometry x="-1" y="3" relative="1" as="geometry">
                        <mxPoint x="530" y="440" as="sourcePoint"/>
                        <mxPoint x="540" y="330" as="targetPoint"/>
                        <Array as="points">
                            <mxPoint x="540" y="440"/>
                        </Array>
                    </mxGeometry>
                </mxCell>
                <mxCell id="24" value="n" style="endArrow=open;html=1;endSize=12;startArrow=diamondThin;startSize=14;startFill=1;edgeStyle=orthogonalEdgeStyle;align=left;verticalAlign=bottom;entryX=0;entryY=0;entryDx=0;entryDy=0;" parent="1" edge="1" target="14">
                    <mxGeometry x="-1" y="3" relative="1" as="geometry">
                        <mxPoint x="610" y="450" as="sourcePoint"/>
                        <mxPoint x="710" y="450" as="targetPoint"/>
                    </mxGeometry>
                </mxCell>
                <mxCell id="25" value="Supplier" style="swimlane;fontStyle=0;childLayout=stackLayout;horizontal=1;startSize=26;fillColor=none;horizontalStack=0;resizeParent=1;resizeParentMax=0;resizeLast=0;collapsible=1;marginBottom=0;" parent="1" vertex="1">
                    <mxGeometry x="690" y="660" width="140" height="156" as="geometry"/>
                </mxCell>
                <mxCell id="26" value="_id: Objectid" style="text;strokeColor=none;fillColor=none;align=left;verticalAlign=top;spacingLeft=4;spacingRight=4;overflow=hidden;rotatable=0;points=[[0,0.5],[1,0.5]];portConstraint=eastwest;" parent="25" vertex="1">
                    <mxGeometry y="26" width="140" height="26" as="geometry"/>
                </mxCell>
                <mxCell id="27" value="name: String" style="text;strokeColor=none;fillColor=none;align=left;verticalAlign=top;spacingLeft=4;spacingRight=4;overflow=hidden;rotatable=0;points=[[0,0.5],[1,0.5]];portConstraint=eastwest;" parent="25" vertex="1">
                    <mxGeometry y="52" width="140" height="26" as="geometry"/>
                </mxCell>
                <mxCell id="29" value="phone: String" style="text;strokeColor=none;fillColor=none;align=left;verticalAlign=top;spacingLeft=4;spacingRight=4;overflow=hidden;rotatable=0;points=[[0,0.5],[1,0.5]];portConstraint=eastwest;" parent="25" vertex="1">
                    <mxGeometry y="78" width="140" height="26" as="geometry"/>
                </mxCell>
                <mxCell id="55" value="country: String" style="text;strokeColor=none;fillColor=none;align=left;verticalAlign=top;spacingLeft=4;spacingRight=4;overflow=hidden;rotatable=0;points=[[0,0.5],[1,0.5]];portConstraint=eastwest;" vertex="1" parent="25">
                    <mxGeometry y="104" width="140" height="26" as="geometry"/>
                </mxCell>
                <mxCell id="30" value="email: String" style="text;strokeColor=none;fillColor=none;align=left;verticalAlign=top;spacingLeft=4;spacingRight=4;overflow=hidden;rotatable=0;points=[[0,0.5],[1,0.5]];portConstraint=eastwest;" parent="25" vertex="1">
                    <mxGeometry y="130" width="140" height="26" as="geometry"/>
                </mxCell>
                <mxCell id="31" value="n" style="endArrow=open;html=1;endSize=12;startArrow=diamondThin;startSize=14;startFill=1;edgeStyle=orthogonalEdgeStyle;align=left;verticalAlign=bottom;entryX=0.643;entryY=-0.006;entryDx=0;entryDy=0;entryPerimeter=0;" parent="1" source="14" target="25" edge="1">
                    <mxGeometry x="-0.7255" y="-10" relative="1" as="geometry">
                        <mxPoint x="620" y="400" as="sourcePoint"/>
                        <mxPoint x="760" y="540" as="targetPoint"/>
                        <mxPoint as="offset"/>
                        <Array as="points">
                            <mxPoint x="780" y="560"/>
                            <mxPoint x="790" y="560"/>
                            <mxPoint x="790" y="571"/>
                        </Array>
                    </mxGeometry>
                </mxCell>
                <mxCell id="32" value="" style="shape=stencil(lZ3ZsiS3kUS/hq9l2Jdnzeg/aMaWSJOGTWtSs/z9AMOp5bpnHfR94xJeNxMJBGL1+CH/5feff/ztyw8p/P7Ht6//+PJfv/z0x88/5H/7IaVffv35y7df/lj/9EP+9x/yX/729duXv3/7+q9ff/rz33/7cUvuf/qPr/+5f+G//8TFfGtho1L4nz//y/oP8f/+w1//lP/nL79+lA/zg3y5hQHy6TaqyOeJ8k3lOz1PupX8Qb7eQkP5pPIloXyoIt/pfeNtpg/y7Rbp+eP9557ypaC8rE+7jYDy9ePz9Fuk9Y/3z/OUb5nlP+6fcYu0nvGWksg3ft/YPsjPW+T1j0HkOz9/+Lj+MdwS/wHZEAvQacctwMcdt5/x8BeiAiqtUbjNqYD/P3VvAfJI6RYZMIoCCi1ruJ/aF0CnfRFuVZZ1aRoG5KKAzO8gmmsBOhydeRuySEvVdZKvJl9QPjWVH3A0p22LesuwQuPWp8p3WKBxV/wP+Yb7dNzKVPkG6znuivYh3+8n4418ripf8fez/f7E58/yvusJcX3SVPkJ33fJ94/yE4/x0P2QAl4dV/KNn+fjeqali/n3TZ5UqT/Pumvxe8n6LHm6Cmz9E2sI+76JFcSSzyrP6yn7c8lPOL9LXtan3J/wnXxX+cbPL89TD+dLv9cyheAiWxd7VvkJ3/dx+h7yDde/qyW0TRvYD0sbyPP3+5XwRl73T78N0A/9vrse8qwf2q3L91oaG56nqWW25MnUarqfc7h/wTfyYtksedJX9TY+Pn+OeD/WW5XfT3jfVT3vOePzl/vTPuQLmvblvnov8rR/ihoQueL6FzX88jLVYX2y7ufc7yfojXwx+YHysp/zuO+oN/Lx437L8+4LXcqn26wqP2H/p7sj8vDcArpuD23/kI+4f5KuT1n3C3zfpPpwyZM9kPS+K+sL4u+LZ1IK6s+knkmpt4jvK/bekh/kaKhRX9rdpn4jr555x/WMqt+W/IT9Fu+350N+sCup+rxMvB/j3VF+kaf7N+r9XgO7nnfr6CEfUV9F9S+WPOmfoPdjZf0Z7l//IZ/vO+qNvHyvyv7OWg15noL3adDI0ZKn9Q9639WK9kxQ/6KuGxDOb1D9UDvan+G+2g/5gfbklTz5ay4/7x7Z98k31p8uH+9f8Dvllwb+1POc9o/KrxsZzovLV/QfXX7pt0+tT8eYhcs/PILvlJ8YOTL5Hj63P3tE+8fOy5KfuD4aGUwYHwiqn3vG+2XpB/n9crdY3umrj/q5L/8F10fs1SVfUf/LfdobB73ugdIXeTovUf273jnOpxGvJU/6MN7DjA/5cb9x3tkDQ+XpvDxCgC/ytH+SRn77vP+Xd/ZbVnm6f5Otz0T/xTIHI9w9jjfyst9GwP2c7t7uQz6if5fv0cIXebbP00d7ZiT037Ou55IvsB+ynt+R8XxljQcuedJvWe29wfrhYV2/yLO/I/HYUTDVkNUeXvKU6in3r/kiT4H9oudlVIwPF423LHlKhZW7tfMiT/Gox237kG93D+WNvPhrS77Aea8aT1jy5I9UjV+Njvqh2n7oaC9VjQ+McYi3SOZvydPzNLUnlzzdL+2e4HiRp/hSs/050R/stt8m+ptd76MlTymYrvbAkid/uau/MB8W+Lv4Xld5/n057zOif9pVPy95uu8sPrnkab8Njf/MhOfd4qVLPnN8Pqn8If5s8hPjt3KfznzId4i9seTp96fmOSfHQ6b640ue4gnT9lvl+ECwVDAr0J2DnAqgHbrzqPIJOGW2s99DARRDjI8Q7AuAnKpoUakFwChN0rDp7KiGYlY9tABY0pFVMS4AOXqx2M7mm2ABZlEAhSpjVVtoDi4baeoMLAA6D02jawuA0bWu6ePJ7mcc9h0G76VhCnhgwClOvcEXAAsRpl5pk69M91knl4MkK6ZYAAwyx4tlxahuUjNnAyhsnNTuWoABJ84D9xtAjkpRz3UBJkXul2kngImhrW17JQVQrmIbO1UBmEzoWkGyAFS9sK4fPdMTzdMcbGtMtEeylf4sQAUlkH1rTCyWy/nikcjFz+azbAA9UrEzPfGOe+a4vhfQ7kUX3wvo98/0vQBLjJ8AUzOJB0AJpiqPAKmoOnyHYsmRycncku621ysAtHfJV7uV3iGbXuL6k1Lu9/4rALb3AjQ/orC9d8LLHgld4Go238RLsTQzojkouwDd3iGBXirdzNaJlkDpmkfdypgeaZgZOjFQU/w8PJTnO4DqVk5lVMv1bAD8hZ0qs0dCZ96ylxsAy1otPLhNB/oL2TYf2xoLoLcoWzO1XFiVFAGr1QxdTuHXpjnGbcLBXlqA4QB66W5e38CoWR0a5t8ACiNNu1AY0IJdKAdA1Ez+CZA0VHsGjM8Bsl27B0C5sL0R8Kh7fwVQOVE1E+5Q39S0gPOwW1u3iMkhgtY1hL+PKNxxzWoI58PJeQfQIBHb3u1xZ77qVopaBfMUJ6ZpFmDYlUUl+t1K9OfEwoSdB7SLnW7Rnu6WxevFTqV++cJ0oL20AO4OUHFvLxqdPFgzvZoSYHupN/Oy2CJbAPeyGpyH7hHTA2Boid1+B9oa85OrNML9u75+OAo6Wr/HnBzVtLTi3q30SOlit5K9NLIm8ubAwtRRzOEYWNkwisX5BpeiV609m4Nrfav2S+z4Ev2FZtZMx+qPBVBF1tHQXQC1BBrXuzczdBsva7/FogBSMzuBFBWAW6NrDcWsmNMb3e7pirfoM0f1AiB1P7rtpYJX1s5qRQWQCTeGxb05UboASQCZMyFWWr9TCbSsQ3PVM6PTNIYpsoTJ4WHdK5Or6cawyHrivTS0nndGdDjGMCMxYgHMAugBCliBMTzlEljdT9MaAeN8Y1p73+QDNDWuMdh0GFNP3OCy+fW/xXQYbCROywMdEr8LoJnTjt9hBg2EDG5Vmla7tHUhAaytcWlbfOmo1e2jYYB2WvntvpOoHc3qkZ633jvAtAILTPhZxfQC4LImTa8tACnjrSOsJoZu0WnZskNRzALI/bDsG+zyS7ZKCaNwS5OK47dNLjhACyCFzSPimV4ACXmNiGG7fRskBVAp0wJIlmYE/g4W3FwAcmkWQKtdwv1efQcQZbyMa8o07UvW6uHIY18AKfhaALqnZ7HebM40LYCW0LHHvk2RoAAyEhdAnNfl5FDocVpXz/aKCFC1baVzm9e0PqMFoAtlW3jy0g0tsgXQytnGesmSLr3xslo+brmzuKxVfdHOzUwbUBRwWFYvtw2k7uv9znwA2NDdgKoAKmh8Vme8AKijdXsL8hcOLeBN4xo70kGP1FRVdi7imVZl1rkVfwG0DJub/WfTuszOdVHba7NCciokXADdGgGzA8+SlBcAHqBmWiPwKlnzZuPmiw1oCiAva3ZV9wtA7dob8PE8tIP27qr5GhdwXwJwt3YtUWudP5x57Lungr+DOBw7KHx4B+/yoM3XNd7aGtt8Xc2f3XfCjySFowtw+NIKKKyMrwBUR3YByGzCdc2LLgCF7S5WibsnZ9cgQkunl9YPl9gt862RMC96sfm4o3laie0CkPN6CThsPj1AAauLLgFYVenLGvie7uo0VQ4yL4DYS5UDtAsgocfK4dNd7vdxt9ajXhJbo3Y2pYcq48rkBNOKVGrFUMuOEEv7HzNZTYsv7QQ0felxL8d9AeB5mHo/1MSrNNVDObTATqvprYFv0ameYuGUyLT4UjncolNDwIXbBJ5VYw8A9y1cANo9b/O9gIpJyEsA1eheAA612A7IbKxfAZAdyQGJT5wDIl8oDuDw6SUgHfaSUDRweu0CwIU2l4DDiXPWCHQ4rgAHJaCAz27v3Njmc0DlyIkDuFXrEvC53Zozu8cOSHzHOSCyGeoA7g93wKY0+9RL756OTy1r4pr1CwDTC14AGjehXAEwVukAptnwC+XZ6fYWYMRPGPeeymyRDnHvqem1Ayvns+zyATjEvecF2VXiZRWrMiWOYE31H3ZhPa+S1MJtBhd6JLOXdos0G1gSVNvdBLRKVgt3oFibxom3u+D5HXSVAuulrpGTODlc1DUEHLmte7sDH98hckuGuzQLgLvV4kuxY9XjDnkZlSFaAk2t+wXAM900+hOZDG1WZW9ZAIycVM0pRma23WFsART2dusFASW+dDXq08KuZbGXzpgyXwCJVW5ST3qHotp7Ew7T1ijG4pj4OxSjDT1EHbJ2fh3oW6dRMD9Jad8BpDN8dy4yQE9c4HSzcR1wN8NOi0ptBAcerfthIIvxNG4uLkqexto82NwzLqyOxee78kOyJ5ypiGoC9FMyXuN7WHo1g7NI43VuDTGNy9Om7jjWdmPosaxcjNNdHqk9m5aEF6ztHFZoX9B/3swSwq13NwWu5bPuz8x1OMm4HNFu9qrLzM8f9H3ZOe8Wt+FIUh/6PAn7bXs3rlemDm0uTzb5zl1mlafi4GI2PJpd3bhKEjaRLnnRP0y11ZPu54R9gj3682BdsLU6Ji6eDmaX4vndyTV9HmxWmMq1wtQI7WK/kdXbuhY+cGqhWcozMbVq08K7hPq8manF1MitmMuI6c6W9f5NmIZodr8n1LfeIBPRmWvRTEs8vy2Y7crdYtPsRKSm3kx9ws3OrV/dGPXRwKqWaXq0nV/L2/0V0X6oVUvcI4Zza7WZA9yTVYxr/e4QXctbO1Nkah/jko14Xmry/UP3XbUpFxHt22pcl/HUYSn7LWAYtxjXCmf5doZhiDzZb6Wp/RZQ/5ei9m3gzt6s9gOnccqjouQpT/o8W1dVQDKAZ0z7KU+hnlxVv/FQj/xIt7/I0/Mnbcw5yBv34IGabmoj3EHeGoUO8l3bTQJT9zUtSuWo0+baMnniAam+H2i/paLVawH15+Ze0/1MRSU7GqrrT/6vc2sHDL1s807Xn/zNlC5+n943aiAyMCVJ1HR4wPt6L18WeSIkidZwHpiqeWqJQUT/JQ6bT8McRmZPRjwv0bjLuAA6mr/D1I+xWaCMWZ6MjigyyVNV/Zx4fYraP2zPL/mk9ifORDKqiYT7c8cZzb8j9qV8DwJ+n/8YrYWQ/Uefmsb+45K39cepVFnjY+wPXsmTftvy9n2Jtyzr/XLYD1mTCAntyWjtwIm5r7LvT5QvNruEn6fY7JvT/s/m/9J6Wnd/wvhVtI7Vw34oNvuG91vRar/EU+WKxxMO52Xa+TqcR/t93v9N15/idTGrvcHU1/u86PdCJsFsGVympr74fUr4Xj0/jmP7rHzxeBRVcETPDGF8LFq78/F+tPgAjmIwbtXIUxgt/hwwMxyNC5QL3qN1pwY+j1PPI9ufcWr86kBlHdzfJH3l3OkB8y/ObR5wdMPeXuYvkP2ZLvxNJvWb+r6U70jWj8ajllJx+5zie8lo27idYadP9PlpP6fm/ixlFLd/p/4yJXad+zcwv+CFf0rxliv/F6nKL/Ynyl/47yh/ER9A+Yv4A+nP/Mn13PETWx/iIIvuX1N8eMd/msgjlXi5iLfA8ztNG8cfStd4OOuT56ShF31FXHnTzyMSdwXtJuVRQvXCH8d4dVL7kP39aj3A7L9Xy2ex/16L+hfsv9eq8QQeXVKrzSpF/bbj5+pfk/6s1v7CdVl16HqyvbHkp/4+3S91au88xxOaxVs4/t+ix/ORqSupPx6ZqCt5fgR5urK/L+3/Vvx9KX6+82v6PMQWsvN3+r6YnzI258jU/t0K0DA+03zWLdqfz1bDF3n6XlOfn0eLdNtvCfMp3WblcHypR/f3kdo/ebyCzle3gifOL286siTyFH92NjLmaNj1Ceq/H7jILN+NVGT9Qp6+r8+KxXxTt/ofjic4rRjHE0b0egMkvrFZkFzfMsy/5urlPSlG62EonjaqUrZmvE83t5bWL2H9T9dK5IL6cFg8vDLX17TeMyZlMD7Yxj1VUeNRPGpmU8Xo72OXZNLz3rmCMul9ceCUsP12aFswTvjO9XvJOI0wH7o5X4TChetqs9YTHnrVLX516HOy+pN4ZlexilRscbCMQeTpMU+StAcgciuicZ/EyCXdxYJMHFXeVCYGwGp/K1uMGeMKm5kkKAArg+tFwTVpros69oKps2m0mguAfU7GuRELHx4v3j805DRtzY0Vw8W7AUE+XDv1RGjROM8y3yNUvMWBmygkQrJjkvxIWoIzuL/G5sPHyZvPOp53WJJ7qtUKDFwWPS3tEE7NjpoH4cKgJ+P9C+DQeiXfYbsG/Eia2uDawTm1++VgPC6AOKMHa2pO7RHa5tHhL3j7GOVDwiNe9kAcO9T0Txx74PQljl122g527OOTE3TuFFTAsRfRAYduRwUc+ykVcOzYVMCxJ9QBhwOhc+aPfa0KOHbOKuDYm6uAY/evAo79xQ44dDAr4NgjrYBjF7YDDn3eCjh2kjvgoL4VcOyGd8Ch314Bx45+AZw5Axxw0sYCOPIeKODIrKCAI3eDAw7sEAo48k8o4Mhw4YDPqZkzS4e4KKVj0OkCcGQakYv6zGUi0zwKj1DeAKHqObAHTQ1M1Mj8plMjAfXAX2fN7TUzN+hUO3QB0C+bGtzdzDsHO9S5fbgLW9JL9XCxD82fPDsG3hrfUwGoyIZ2IFSe1TeH2tL1wD5qPOT1QNVjreeNs9Cz6wE6c1054MCmJS77ma9LjuiZEUyYqM6cYxrqOrKaiRI486ZJMeSZmU08jjP3mxygM7uc5CPO/HXiKp4Z8hxweml5pCPLn67SkUdQv8ORqVC3xpELUXfrkW1RD9CRz1Fu0TNjpAKOnJQOQM5if4eByb+LVZpMmO0fjoekXGy+eaL6VPrecNreUrDQmfnfKfU6tzB5gKk/xmq9AyjZNCeRpw3n6Jwlfc4ZfgAOoROjyexcl+58jv1gnHS1NfqBF8eGpOzeYqbvFd3aC3+HZpTcBZsRZ9OIVC+ncKhUj3SeefKcA/MCoPqd55DrF8CBqFlij3ucE+0lqyDZOVfmLJaU6QKg+WM1Tr3xiWtqkfXOSqAajXJnvVRNa/QTJbfULfUDkYYVKj5Tze8ASpjNUxlnNUrux9iUdwCxW/vkA2TNkv0QEyj35NsLAG8gK28Z4cj8PxSABCg2W2Bwh9m0CtZxsIyLMmwPrkma1pMzIpsO1pQzEodasmbhB5dN7DSn/QVMNWX1RcfB0LWpvSOfMtli3Y+DoZvUY99DUhggtaCjYPHQtGLEUTmTatVkC4CazwYUjoMyNv6LcSgQsAbx0ZmZzRhXxmFORdQS9jGYHMs4ewbP35xBDaxxYE0KNgNoctQh2IfjqYwzmBJgdrn9v4UoKuB3GFaZO7nVfc+TmgqgHMqYNjks4uYbVny9tyO/tE6hS6epWzqVMaEJt/mZkgIOk8O0ICTzVEarOJyHkqipGb99AVCN1rBRxQU9xefufwGQp3gx8q1gGeeeQifj0irv1mGjiisWku/Re1UBpCqHhe0mj5IZFkSYHEQYRgC5PQpaJR+yyHbrVr1VAZTLGjbNY3LiaJhL84ylvAP4UGqKCVzM3xzo0gwb6bOjyDxDVHrADiPUR7mYMU1hu2FdmZshngHRAFTxNGwg2y6wYKIzPUATO+FHUIfjWWBxCejzYrYxcov5gPOJJVJ7oJXNZ8aR0U0V2Uu9xDWiGqvrGaG76fBQRkH1LJi4BmSbJ35YJyNJmxMVza4Cty9BYbVdZm4vTTf1DnHZXyBF04OdOR6e0aZ2Iu6EGAOynznqPRgX24+qeZpfKWwmNuuWnVwT0qy9cGsmeqRmA2Y5j79D79MAsDWaMWQ9529cA4wiawPopY0jawOINC3ZvNgjIHwOEO3iPQCMB/AAqFY/twHUmTW0c/+wrDsPanuJPlxtWud12Br16mony7VWjUvPgYHsenlT01/IdoAmhjdrVgKaZ1b8GpC0EHhyOrgms8nmiaNNp65PtFxrMEOUFdkCiAv+rP+8BBT3s3iYfRk2E30ikUKxOUPPCtNrwJVuJTOxNHOb2GIqTaMCkwebFpstOXkG9AJkW1YKVJRysawURijG5/UsjbkGGCHNNk7okYzR61mtcw2wFpGD+VOiTY6fSKpZonnUEyPfxVieDyZcnhdaAwE2FesE6Bf2PQLcMTsALGVxAhgXw2FZc9YSj8OHy/nqw8HWyMmME97em//AzwMRYlyZoXSLJh9mz1pjUwza1qAAarKc35xY556uvjRFK5PlaQ7aO11du3Q/pKx9sHNiI9eTp+v1jmMmlmnfgQJ3u1PcnXziDgyacN6AA5mMqRmq84pWlbgBRM8zTd1zzi9agd424eiRhh3RwQxS1rCzzVCi6Gk2ImEwh1ezMz2Y1K3axT4wHbwbsQxAke/dG2aWMQWMntM7XuNwRITlZihnqPcwjqYAijBFoyZ6DsB8B9AwRUfbOwZLKBySUxcRWuwjNOe4ovcwNJ99CkpbPJcr4az0dCfEYYGskHQWrBGwQrvJvUN+82QOE5kO5m6PrsW8M2P4o1sEh6uQrGpp8ogaK1qaXIJtNUuTW9aatmLNAzuIlqVMZkNp5l9wFW/TuoDJ7F82MX2wKW+VPoM9qmalE2wlVLUfd3KN2MpVJ45DAMOqGgazGVnWd6BGLPb8A69vM7t2iokcHXUqdsKI/E1tth0N3U0j+9jVBrCe1ty+5Om8G3nczv0Q+7gG2XZ9BVn7VprAvTJZyctGQe/ayKQG51WTFuCOgllSJzvgho6kDtqSp0LrpL7+yGyEqx8xEpZvJb0fB/f9J9X/g9mGkjoRI+L9aCbQYPavqFbcHhdEJpOVJAUsirWsS2dXMWoFU2f9GbXMq3OeM+p9veSRjVWjIEse2bJ1/XvH9w26np2ngQW973pDV8PqhHpDjy9oTKZXtN+CrQ9P67IwVC/YsBJUn/eM91dQA70zm68VLR3qzq13vTObncszG6jJN44BuDz3cLt8x7CHyzeMWbt8xZC1yxe0r1w+YzG4y/P0LZePyIbl8tywbvJ1YiGHy3Py80qe7LFgjXz9oB/kvFQejhpUH1ZmkwpK3lSZ8CVoNGiPL8LzK/ZS5WHHRl5WuT06aM6zMnuc1QzUiLGmoIUVlacnWQCvBrSXgsaCy8T1j6qfC+urqDOLC1c+Welt6VjMGLU4vnRMLNowzt0JjvaM3Kc7I0ZhMg2r7V52tMfEXi0F948ljnZ2C99Xu8YTZkQss7vk2Z4X/6Iw05bZw4WnXRn5Y564H5J2ruVDxFvZnfJANvSs65M5RmnDtDKz01kbQ+ZqeGusyBUTJ0allplNsGgKbpOboL8v9n9m1jIjC84Jm1uq6ufN/4LxDaEoyIHLMzQ+kLlG3YdBcuKq2TDIQzWUrv/m7EF5uS9Sx3hIM+YkjrfYsMP9F6lIzki4Gt4X3YZnVPTHfdgnU+N09fdTxf3cbbhI4emsRglWmK1WE58pY5LEyOIP7FtW0L01Ej6/VCo/Nd47eVmfhPZet/3J01Atnn9gj76Sp/Prz8OsclfylB+x9YncT9ht2CfrB/tekRuJXJ7ZSf35O96PXYvvlzzWJhulZDusj9irkXkULD8VK57fYVyMh64PI/tmLi+jm4nsv0yjDc3MIKXliJGnkU/VhzEzRYOxYSb0T6M5qJH7MqN5hJEZrWIwrkoegByDcYZGnkBnlbDxMLIo2IiCw0zCYDNsuWU3Bs1rRZ5y6oDJfkNQQ5QrPHfi++MbMMPolpdE2+mjKY0AdroueQ1EY0lrDMYOxHFrC/yynR6tu4A5Cpa8KKLKLJvmqFaMsy55SawwY2ZMeo4LF6QkbUIvGLdY8nICMusVm+qUkZspZjXU82kqYQwqz1PWoj4P2X3Ruskzf6+siemjvLHYH55HAllcB7HllVUf8zZZL8qMfp5P9cvIMBBtam/GuHW0Dg1uafWpn5yHPMuvf/jtxz9+/vNf/vbLP//5+x/fvv7jy+v//9vXb1/+/u3rv3796fGffv/5x9++rH/7Xw==);lineShape=1;" parent="1" vertex="1">
                    <mxGeometry x="433.58620696421167" y="183.13690631787915" width="221.84114475317827" height="388.8217989684782" as="geometry"/>
                </mxCell>
                <mxCell id="33" value="" style="shape=stencil(lVbLctswDPwaXTEkwAd4zuM/MhOn1tS1M46Ttn9fuCqdADLR5CbLWGqBxQKc6OZl+/C8mTC8nI6H75uf8+NpO9HthDjvt5vjfJKnie4munk6HDffjofX/ePy+/nhHHl++nF4O5/wa8G1BkhnFIbfy5uYIcW/b+4XwG7efwAwQ2oKQNUF1AaFFSBH4DYGlAZVUyoFMo0BQiBqQEud5HUA9vMuAMmBxwAsULIGNCAPECCiLmsIEMIYEQkK2k9gdeoKjDYHL56Asi0SOroFKEXHB0hOApKerikXwOIkDDnpeAR0zs8QdL6VO8Pr54sEUQMKBCfhKHx1o9YEGR2REXgF+Ffk6wBR1OSQ3S9QgqKLWis0p0jEkLVqHAEdSilA1jlw7iRHAON/9q0glCjoRpJWdHSQpM1IauJ/x87IULXSjbsyI+Fo5bWWnNbIdiQJwGu+ZnUTRsExZ1qZLQM5Iy/2fy/xsTMcmVNrwLVPtEE8m3iC7Glm+cvUr059vhxPtk1zdhXLCKUqAAWojnMKWkrcP3k9PlkfCCHHN6Xa6SI18NamSKDntSjsmKCu5mPoo2C0ls0O9PcTJ7vRQt+6o3vC6vzmOUZ2sm45hOTUUwxiWlQEcTpaDGimSoHm1P/d4BeL/WfdrDwWJSWP0VevXp8AyMP7Te9p3u2Wi+LH/+3NUF4tt0q6+wM=);lineShape=1;" parent="1" vertex="1">
                    <mxGeometry x="461.59822040518156" y="191.09937997654413" width="4.372771115846294" height="6.933360206031498" as="geometry"/>
                </mxCell>
                <mxCell id="39" value="Adress" style="swimlane;fontStyle=0;childLayout=stackLayout;horizontal=1;startSize=26;fillColor=none;horizontalStack=0;resizeParent=1;resizeParentMax=0;resizeLast=0;collapsible=1;marginBottom=0;" vertex="1" parent="1">
                    <mxGeometry x="120" y="580" width="140" height="208" as="geometry"/>
                </mxCell>
                <mxCell id="40" value="street: String" style="text;strokeColor=none;fillColor=none;align=left;verticalAlign=top;spacingLeft=4;spacingRight=4;overflow=hidden;rotatable=0;points=[[0,0.5],[1,0.5]];portConstraint=eastwest;" vertex="1" parent="39">
                    <mxGeometry y="26" width="140" height="26" as="geometry"/>
                </mxCell>
                <mxCell id="41" value="number: String" style="text;strokeColor=none;fillColor=none;align=left;verticalAlign=top;spacingLeft=4;spacingRight=4;overflow=hidden;rotatable=0;points=[[0,0.5],[1,0.5]];portConstraint=eastwest;" vertex="1" parent="39">
                    <mxGeometry y="52" width="140" height="26" as="geometry"/>
                </mxCell>
                <mxCell id="42" value="complement: String" style="text;strokeColor=none;fillColor=none;align=left;verticalAlign=top;spacingLeft=4;spacingRight=4;overflow=hidden;rotatable=0;points=[[0,0.5],[1,0.5]];portConstraint=eastwest;" vertex="1" parent="39">
                    <mxGeometry y="78" width="140" height="26" as="geometry"/>
                </mxCell>
                <mxCell id="43" value="district: String" style="text;strokeColor=none;fillColor=none;align=left;verticalAlign=top;spacingLeft=4;spacingRight=4;overflow=hidden;rotatable=0;points=[[0,0.5],[1,0.5]];portConstraint=eastwest;" vertex="1" parent="39">
                    <mxGeometry y="104" width="140" height="26" as="geometry"/>
                </mxCell>
                <mxCell id="44" value="city: String" style="text;strokeColor=none;fillColor=none;align=left;verticalAlign=top;spacingLeft=4;spacingRight=4;overflow=hidden;rotatable=0;points=[[0,0.5],[1,0.5]];portConstraint=eastwest;" vertex="1" parent="39">
                    <mxGeometry y="130" width="140" height="26" as="geometry"/>
                </mxCell>
                <mxCell id="45" value="state: String" style="text;strokeColor=none;fillColor=none;align=left;verticalAlign=top;spacingLeft=4;spacingRight=4;overflow=hidden;rotatable=0;points=[[0,0.5],[1,0.5]];portConstraint=eastwest;" vertex="1" parent="39">
                    <mxGeometry y="156" width="140" height="26" as="geometry"/>
                </mxCell>
                <mxCell id="47" value="zip_code: String" style="text;strokeColor=none;fillColor=none;align=left;verticalAlign=top;spacingLeft=4;spacingRight=4;overflow=hidden;rotatable=0;points=[[0,0.5],[1,0.5]];portConstraint=eastwest;" vertex="1" parent="39">
                    <mxGeometry y="182" width="140" height="26" as="geometry"/>
                </mxCell>
                <mxCell id="46" value="n" style="endArrow=open;html=1;endSize=12;startArrow=diamondThin;startSize=14;startFill=1;edgeStyle=orthogonalEdgeStyle;align=left;verticalAlign=bottom;exitX=0.343;exitY=-0.01;exitDx=0;exitDy=0;exitPerimeter=0;" edge="1" parent="1" source="39" target="54">
                    <mxGeometry x="-1" y="3" relative="1" as="geometry">
                        <mxPoint x="170" y="366.57" as="sourcePoint"/>
                        <mxPoint x="180" y="310" as="targetPoint"/>
                        <Array as="points">
                            <mxPoint x="168" y="368"/>
                            <mxPoint x="170" y="368"/>
                            <mxPoint x="170" y="310"/>
                            <mxPoint x="180" y="310"/>
                        </Array>
                    </mxGeometry>
                </mxCell>
                <mxCell id="49" value="n" style="endArrow=open;html=1;endSize=12;startArrow=diamondThin;startSize=14;startFill=1;edgeStyle=orthogonalEdgeStyle;align=left;verticalAlign=bottom;entryX=0;entryY=0.5;entryDx=0;entryDy=0;exitX=0.943;exitY=1.192;exitDx=0;exitDy=0;exitPerimeter=0;" edge="1" parent="1" source="42" target="26">
                    <mxGeometry x="-1" y="3" relative="1" as="geometry">
                        <mxPoint x="320.02" y="775.3500000000001" as="sourcePoint"/>
                        <mxPoint x="332.05999999999995" y="469.99600000000004" as="targetPoint"/>
                        <Array as="points">
                            <mxPoint x="260" y="689"/>
                            <mxPoint x="260" y="699"/>
                        </Array>
                    </mxGeometry>
                </mxCell>
                <mxCell id="51" value="" style="shape=stencil(lZ3Z0hy3sYSfhrcdjR24tn3eQxGiTIZlUUHRZ3n7A5jumf/P7PlA3XFBTXdjqSUrq/Ah/eWPTz/9/vFDPP/49vXLPz7+z+efv336kP76IcbPv336+PXzt/mnD+lvH9Jffvny9ePfv375128/f//77z+tketP//zy3+sX/ve7XOtHr0sqnv/3/V/GOFL697/813eBXz//9lagHjGbwACBePSuArmDwHlUe6VSXgvUfsSmAjWAQDmafUNtIJCO9X/vBf7zE/cC4TjtCQ1mqYybae3whNJuFq7DtJZyVFuHAStd0rWubwUqCJzHsG8Y8Eq5H/X9tIbzPM4TJOq1OX/0EelotnI0TTkeyZeaBM5rUn5wM6WhX732Nyx16kewlUuwEKke1WYp0BPy0WWpp16AI5fSEaoKFNhMKRzZnvCfM3UrEIft73YMONRxzlJRAXqlODVZV4ETpjVm23z1KPQN8cjne4FyDBI4j9xUIMF5CP3aOQ+BfK39vUA9mrxSuk7tvUC+lMQbAVq4kEwbR9zeIRxNFi6gnglzloIKZNgawxb6RN3abRXOI5JNvH7tGt8HLkJTFTPHn2SvjvF+zXo/Epmra98/xje2VkcMOj7A+5TrID7G8zkolzV+jJ+/QMbwSDaeTrJpr54vrf9ifJb5T6jt8hGGjk8wP0k9nh7xfdJRgo4/YX6m8pX9MPc/rG/UM9/n/getEo9YdHygA3n09+/f5v4nraWOxRx/gokNl0/wGN/x96cDOXQ8mb9T9UNrR4T5P9W5m04x6Z/T3r+g5zXHJx2fYH7O6+se4zM6m6dq6Dk+4nwWef+5Y2E/PHbXY3zE7w1HSDoerd6R37sGLVw7/NX+7Dqezle0+TkxAInq0LXHCr4YP96frzpQf6bL+rwZf+L4LL/fLw3zYrwEXLWhU53s/Rvuf9OftR4d9bm+f0X7O3e7zE/B+K9c1vYxPqMPNE9f1vER7G+5/P/H+MTxqL3PY4e8GC9u5Rwf0b7LeZzhKdnTaf3l/eeJhv3Wrt37Zjz5Dxa6zuiX9s/U3u9/v3S0p13tyxxPUWXX9ZrBdYT572rvSkUPt6u/NGPxDvpznu6m4wN871B7XfK1Q16Ml/NVHhrgxXidn4gx9Li8qTfj0b6fegBKOCJHAKIRy4kecbDAKj8m4ZWA+Ky5ow0IZvRyOyqHPeJF5Hr5La8E0nszlgsegymgr5QxDgjm+C34hKY16s7I8Tobr4JDCdJzQNd7CghUl08WyKqs09yO9A1ZvYPUMToJ5QJf3ggEcm/KBSA9BBrGDzNIl1lKrGBCVQ2cClrYKaAfXfgbmgI+KV+IzisBnaXE69Aun/KNQKRZaro1UjwKP0GgjBQQUgpdHdMpEOiju22+EyOzKSCw2FK2LCC+5rQu5OtPAUFXlvklZdyvZXoIVPRGpoBM63JoSC9NAXlCuSLalwLvt8Z0+chA37xSwpzD+uj352E66RQiL4GkAputIUpghiVkdENX5HrFSfwNAvDPQKzx9q5ZBfDEdTWKYXDg9YjT3whQJL7wzPfn4Ylw/ugrtQsNeimQVGCzcPX9AZrKM5OaMXdyGYCNQFUB8p9vnpB3akYFNob9TmDzSqKMp2+ADlZX0HS5KxutMVQAd+tQk7WcOrJxQ/H95ZjSiRsKjAzEReZ4TcEhDhEeua0HEIe4VDz1i9u1d1+Njzr+5PFJAvMLSX01XoDWgqm0aMB+QdxxAVPvfz9zPuZUW5gxLoxBgYt0Lfir8QLUJ/79qAc/csYqa5wULkt6P76oSxV4fprOf+D5H/r+J+J80z+T92dcYbqYAkQ8FvB+vGWHT4yopt9+6u8XGj8023aijpuxTdT3SfC9K3jS3ydcdoZzNp5wghlgdv3eE/bPDHmbjSfGQLjyp2/Gw/svhkH/M+OLBrQn5s0WjKPzfxLO1xVIPNEvrQa8n9eGvR8fNDF3IsxRowIpDwV8Pz5r3Hii11vr9d8/dr7qjFb0/QknbqfqT7bYLah9DGhf2sMneY4ne9eyxqQBQ6FWNRET0QNvzeKUa8Lux099Ih77NQH3OGLQxDHjxN0ShenKdN2PNyA9XdHm/fjq9pES971p8JqRx9K7JhoyBmXjoS6f/gP5S8Pms/DvR0vEoD6f4yXQrYybJj2PDff/SKofOvqrI1uiHyGZkY2/gvpnji9CnNj9fjMPHYHrrBMaWAONYhoooIs+BQQbn3EMAWOjaJgeIoPpRTf1Cq3AKi2S0akC5PYtGpN8dEa9PgWEIDADUDIco1toVZEUNIynFJhrNR6o1hsB8i2ngJAPA1PYxtCsfGDm6xIoKrB7guBcJ+q7WwFUGEMdrrhhQg1NOkTmWi0Bw7koRvFpjQ/M/+XCVRWgHMISECuYMSwbjmgWzCcPB/cKnzjbrVPTN36CeNZL1fN50Ffq6Iv4eYgdSW9jqNaInCIbRlmOzMVdNNf3H504l/Ok6r7B3wlAeBKUHwKRPYChoNIUQBTqNDJPSsh/HwbizLCWopAlkFUA1fdQ/lsqyPcYxq2dkTPh6U8u+huBzVLLdk0NXdsl8P5Qz+CcOE83TxgIXt18w0B0wGcpn7vNJNt15SpZuQpelLfqW1TfFKAI4EnxfwjE3dZQlzttd2tVAcrC+XnIGaNsP6NTgMKSmzOaC9qgewnKbNx8dsVYfgkEFSBN4/s1M8tq1SlIMr4jPDKG8iSfBRk/qMDzwIByVfpEFdjoDUGkC0N4z8KGhwBjBmMY1yTuXFdl+6Sd6ypRfWGK/Xig+g+BjDmsKSBO2ULGOCIQ4KxU1kxNV3rVG/ETBFopnV3XZgu38aabseRO9hOrKssakP4yjGdfI+LBN0/Y+ALVmJMZEfZRVVkuqiJ9dLtS7w8B5kKOplFNrUi+9ehyCuD2bkrfq+06IS8FjL9KKdrhhMXOurVpRVUdmNN1gYVt8m51gc2JU4GAhDNfh7bxdauCJy2xfahqgaZA490q+aCWOVisSstrBZm1w2q2GpeSTIFTBCqS5kZRr681ji4NAGqdD5CVw7SBuXXHpNrDcXwlIHmwzpnvKaDAYLiYTK8EZPOtkhV6QlYnbgoQVr8EpGglYTLMwcQpgDF4trKkzLDAg2TxRgD3Ula8uJfdN4gb2gvWko5kH10ZrkyaMp8CaB+snG8VhzFIrtVPXLg5BfQbOr9SVEe3D+S/j6juTx9If1kCUvS4Qe4sUzcC69aomNQUQEfXy+gjUp5X8uFUAQSxokYog8t8br4hI691LVxQAcRzoiZElqZiAa1LLkiPHEFpeWPj/oSbImB8wqnbe1putHGnmqwpQFujexEwW6B5IAVnHh3tw9RCWqLb0ffupiqfyPO9QLJXGoj/dCsifEJI9wKnFTIPjLL6efMNpMiaYQKD818r/2uvROdhCoidXjE8ZbwNvt8137DweK0Df3SwWaJ0VjNMYDDfvhk0uDYfL5zE00/0/JVA+3MCQWGK3SsFJZE+8ySvBHy30rQu/8sbudARjXdbg7+h20rT5utBfY1NE5Qe1KvcNOvoVqWzOaL9VMbIRgk0o7ht1MwUSKd9NKx0s6Tfph1IswzbWmlWM2pQBsbTbWgB/kZ7Nye2dmx08acF5m5NJoA1esm4CJsiwGKNXxo6id1baTT0l1YXhqQCtA7TsOsTKqL33Ve6IlbZh1nRgpDXs7PFGwEKOLrh3oOLZ7tlIDZuaHezy45utwzExpXuloHYOeuWTtiFA1byvws4TlX3u5DmtKYRg6PdUwGp5WfyK2lbjcZ5y9NC/A2SGBTnmwKYog6KnPRNIj/eBOBEkV2UMFmHvAteJaSZAhixe/eOhCViHvj1DcHIfO+FzVAMlDTzv9wVOg/WSmy57/wECWk6U7OngPb82KQTkoGbXIyx+iQJbNc5jjO2fmtYpTOsT0KrTCXLahQb95dygl4ryMgdWQO/lpkZZrBdSzu8VWcpbil9JoDrUFRr7JB1F9hg93cCmB0wgV3+oVjCYpPhKEqF3eVQinFbN1maoppvlwcq6hnvMk3ed2OTyyqXGX8IbLJlRQtedvk4g+J3Gb+i5M2VU+RplZqdlbVk7F5Cy3oyIFUUkCoc0jhjtWyoZFXrplf2mPNAsjXKhhxhiaPCBe8rNSXp5rz7Bk2ZJ066WDJ48QToGyyhXbiEeAkY1wE3X1Ofb7EpOFUrWiNzj9DRFGrJGyi+6RHNnQ17MwoJNydaAl0FkEnWFIXLlcsAmhYp57r7aK172LCLmkZZGwLTaLq9Nxyp0VRr7FhYTYGQHc+rWW+QDZOsGR1pw1Uz2vqODdc0Vbvj2zUrGN1m8ZWDteEMNusNsmElGpVnx3t0gQ2zsikauuNuusCGHWqztOOfGnKyGK6b7W2kW6Qu2AHasXSbQo8pce2KaY0U2WQ1jYFS2G0+SU2lc8vMsXYlm4/W8oHB5Ih6x0Jnvobz3DFCqdp4YMekr9ZXY8PVr9ZXYwMimK+xqzeoujV2FQ1VncRdzYQ1CNpVZVRrTLOp+zCPbFdZUtWV3lR7LgHZGuduL0n52qq/Ib1U1TkJnB1wOlLgrOWwVruhc4RSrehoQ+otSlfd9DdZIY18NHczHUXhotXfhEEELf4qCMWPpIhuyPwNSZ3EkHb4ktYFbpRx1BqLwD1KV9Nr+YbAs2RIYggMDAabJW5TOry8muvnR7B0M4OhpxFzmBPvjWXZSBuGzX3UuvVrqJiP71ZkxfByb0qAqZxiqprJ3iRbinrEjNYt1oX46OgwdO/Gx30sLYvNhLnmpU8YTTZvn4bst1ZV1yUEWFtRg5Bwf7bs9fOYBo3WdgytcgsabkdEAeuwQkZ0m2tXUn5ERKJWu48DA+GazXSgj1CjNVhCHVqGBkcBExmlW/E2QvreTyRwf5Ok+ydwPxFrbB0wVMtdzwu/fzYeF89PLsrE53aGM2AXfRJwv+Wg+i1gEjNb4/WAyYXk98UgyPHsmvkcTwUg6WY/E5KabvYz2Zd0mn/J/Zu66v+I6xubMtY4r+0XP/A9BbHoeiXuo571YoPE/a2SoSfcRz0ZmIjwZrRrnDb9xZKmaQrq8zUd1h+N5scItA37N0Vrt8sJ9ufyP/0x7NcWjHqBdPUYjNCC9joaISycWMS+9EdQAXKil0ITgYCE4Wh3VgU+wyvmlDMfUWmtnkryBG6leCtA1A5va7dpB3kjwA0nbwV2r2QNQsi1iUbB3ISt8byJcylWf/aaexNJk7d7I8AUTL/3YtMeNVq8tGnA6ltj0+LVr0LZNJGNp2FX3KZ2tcyzzrmbhZN0y6bV7rOJ2RvsanPiFFnidsFLwPp9UDLkRoBbHkfjkq+myjytgmhMXU/pxwVtyUozQ2AJGJZLMP/am9KV/MT8TDSOWtq09bf4JjGvKAwNSBNXlQUjn68m4/wEcQES9zjzTtLTq8TLkLo5SWXX3FpInlMAr3Dz3EblWWrW141bDwTD1KerTsjAahflWSxuuq/fMNB3XhCjpe42F91p3jjwrUXG78p8LcY049INO/O9Y8H8z9Xxk9YhqhXNm9bTUWH+zMmQEC3hz8nB1T5N1qEjAWYK6MJxXcJ02JR4caKbG4LOUmEcYgr4BSh4W4I1+pwCuPmCdlYuTJsLRoUtGdNeq1GefHThdvKnEiQXXELrcGo0UCrCm8Fch9KwA1swk7Uu9uEnSEFJ4bo1aypUBme9jN3FN0WaNamslKxJeg0YYXXVYTVyFZ0mgGvCDpLNAPKEiIpRayrfTNTUxagFETPvCcJX4lR1uBcFkTrw2vvzXRjGY1skShwvtP/F0iREVIOe2hHxKNfTH+MHHvqixO45nuILu3mz8f43QKidmPHJxvXlcD6pCmp8vZDlDRvfWpDspkXuBWRZw8Y3bUXrJZHRY/abBzOmMS0puW6WxJsQBUBthS9hViLD6rbB8yO/z6RjA/Bax/dP9r0dM2KWeG58ub0T8PmKdL+p9kQE22rSOkdQdtNU5xuOqs5nj1jjU9VirxQidRhXCGX15MCbASUs6Bw8NQXsO9+UaozBzjfxNQVEe0X71a2PCjPh7Pqn1SIbf1/nk29RHzc1XEhz0AilD3al76rK6IOXkyiVcQwiBK+c5iRa8EYZgQNw6wq/qBgkULXH1rMTxqt4WuvLuaQxDI12V9EkrMNC1rsKEL3dNePiAdETim7VVRZAqt3O5uJj0St55TQ3qUve0aHhwiUzZ4ssTubDGqY/+br3AsU2X0cHIdndqZveHcnLxTtyBXO46Q5C35DN6Rodz3Q2Jt9gMCdbHnfT3KBYlmYJgBIoVnA4No6v3dk7BkLxq6LFauSpCKDYdVRjMHvjtGwcV+xWu+5hcP5ulVP5OtATLF4cTD5vdkPTZi9N/7vZbsVOAtV6RnRMJzRLqo+OjPtm1/fuBMbNAUKvxzVfx8Tu6qHi/Ue4yYTaB776oRmy/mwo/lLADhClRJrbONYabZjJGpi+X7NkHU42fDVt68L9bW97d2C3nG59wvjSgWe88lJg/uH3n759+v6XXz7/+usf375++cfHt///y5evH//+9cu/fvv58U9/fPrp94/zb/8P);lineShape=1;" vertex="1" parent="1">
                    <mxGeometry x="46.90344317518202" y="70.02685421730041" width="270.88716291582585" height="765.8511313643479" as="geometry"/>
                </mxCell>
                <mxCell id="53" value="" style="shape=stencil(rZ3ZjiU3kkS/pl4vgjv53DP9HwJUagmtUQkl9Sx/P84R4uZNs8gTVcC8aQnLG2SQTnPzhZ/K3/74+YffP3/Kxx9/fv3yz8//9cuPf/78qfzbp5x/+e3nz19/+TP+6VP590/lbz99+fr5H1+//Ou3H//6999/2E/uf/qPL/+5/8J//4Ub/TH7RuXjf/76L3k8evu///L3vwC//vLbK2A8yqGAuQAwH0d5D5iPfCCgLgXUjIA1FNAJsB61KWDQGNZjVQUsmKV5PJoA1iMVAKRHHgooFQD5cXQFNPqF/JhJAX0AoDzaoYBBv1AfycYwaJbqYzqAXqk9ejEAfLjZbbXeAnQ/BKADYJyf6VtnaZwv8Pod6JViu9igbwDdpzUBINamzxItvnVu+RfAhA+3jkd/v/jKcZqFa0B6lK6ADK+08rm/XgANjMAqjyMrgFZrAJr9wgJDtqpavpIeB3y4ALSsgMyANRVQYbWu9qhVAWTuVz9n/QnIjwxrKQDrUACZyjXUVJaCB0oAxGqUmDf6hWmD7o+DVut8TJnW+E360rGB5BdiizIgv/+FGl+aPlycBgLIj0ZjWGq9a+HvsNS21sbT+jSMT8A4D4CPADKtNU5RMgLrfOMT0GJP8yyt93apJRx0OsIMvZ+mVh4VBnGFeO7Cb0b08+N8M2KiubxCLFwfF4geS5C/t0xuzyct+lZAHPg33/v9Aukd+cAFYD4a2Q4DjOPcWN8KCOJ1M2gBlNPAfeMsjfZI37XIN4mnk84B81FuvvR7U7AJMP+CcJp5c3A9zeMTkHHbbfsnv1DurFN6/x2CbXZafOZFBNsctDTmSaqegH5O9EcAseGb2tG0Tt2iQbwKLY04S9//QhCvSudQWOz3YwjiVWmWuh4rQbwazVLT0zp4FPHjAAjjCJZDlD3+t6yl+BPEXuMFxJuLUeFpXZSXbZZDq7XYtIabQIPOj14VMOiVgu6+Pxr3YqH9kE6X+AVQaFrT+fdeAJ2+9HFSzxcAOslLfa1Ni8h1WucB9QKo7Am1oQD0eYPnVQUQ8wuAztKT5XzkYIo398ZyPvJ5y/sxvBzdH7nV9TsRxezGQlMW1rovA9DEJlUfNoD86kP9iJt5GnbwroX0JADiAL6dex8qWbZeERCLwwdNgKYH7+KDd9SraSVA0UPrDpBVTLgDPB3KbwUcZvsY0Nd3vlKQwvF9AHMx7wBdKdY94GItEaCdtPNbAeVqPxAgq7d1B0jnDv52wHeO4VASdwNo5ibfGIHwq7rvOAKMq0EzoPgvgDEO53CY5Zv0C/3iDCLy0NrFLJF2HB6um3viM+1q8ZH+HYAidom1gZbNzEzklVsJWAogxywAxX6hgPTVjvMFXgCJvsNxyoEvrI+WRl0nOX8BdDhF6zwlzVciCvQkAMdUQIJB16GxlODGE87p2s229vMA+AggGn4AKgGaDbqfcttHADUzHT9crXZkNTQCAdAv3dBnrxZ8CQAJtTUbmW48S/mMwr0AKC5Xkwq1W34GzlcP+9IVFfYA6CtVFMrKungl0rDKtFkqSHTLtFcqGA8qJmdv7xE2UDHBPACFBt1PAf4FQHJ2iYUgyzujR13q6T+/Ovmwlkox25pxxwUgZwUcNEv5DAG/CBX4HZK5fumchmvAYawy4X7YMTITW8h6Zwsr7LAYrNY8VJIKAOk/AUhZAQcMOnc9drdTDqdobqe++gLo8OFyVbElABTND0DJCqDIXy7KlwJAYbYAHKbDUcQp53MHvwCIa+RkWiLr0gGQEFUAKJCXzT0OQKFpPWxa53nqXQcIYnkbgESEtDQCOzlqlkydCQCpM8n2QwBI/wlAngrI9Atdc09uNN3UlIYGgGTmVE0q7/xKxb50Q2YcAFEddtoEfYesamUAKMabkh6KO5MDtmg61AfaGhXpobYyKqqbU5nGLOgBTRUS43nKthlmYjJSn2ETlDEZoStj3ek9sDlNPZgJY0bNlvXBXO8iYoRUT7/XGHjYVnWtRsfAbtUVOhqax6LrYVSMtBRNTxkc2iy6nkfCaFRR4WMcGCrPSsA6J6hl9Qv7wP1l0YOtR5GZU+bSK85PUv9oq1Ew/0nZ3RajyMadhPf5fEJ54VBddStL8P6HyqrtKRZ/8LyclY0d+UNVp9YxtnKcq+v5fEP95VDG3zj54xklfD7PhN/IREtorw61t3Uh8zXdr06ULQ7lvXWgfTuUAdanRf3oeXl/zvk4NPNrJ9/AiXpoKGK782AfLHdj+9r4veT5wlmN/vxEncmfH0jyD6UoOyOL31/yqzjly77vTkID+3ZY8mBC8cSEirzQgziUh+Z58/dlP8aJT9GyQ1MTt5+G60eiQHHCUuT1sHzPwr6Azv8+QeD9k9qTtzf84HnhG+F8kH+VlEOH70H2M2uQNjwJOl+y2udwJOi8yBpmDj+Cni8nu3s+X3G/FHVYU7n5+yKLhU9Azwcfe78eEtv/qudReASU7mhO0kI62cyBQZ2xaaLCxMl8KrVP8oa+Qte56biUuy6djnp7P3nU8+TFvCkLPnEG3tAIxvNDf+BGCY3knKypQ73JDFYjy7mc6ww7vD1OSywdGgQ7MG4Rz4uQdXASZ1IOzwnsKWsOxoGrMhXlwJzjEc+LcnegSx0WRooCjvNrf/R8t/GyciI27TgjSR8qLTpeFIu6Ls4DKVjqyslZ/o0TQXxwTr1Pw2wgq2PDzlzW66bOf+GU4aXrhzfvPmHfG9nKKqtxvMpi9zO1+82ykS4W0yecnyNq8bz4aP1MrPpI9BVpvCMl32e6aCas1ReVfAdW9ezpfv/+nPDnmszk8V4couSSxvOy3jjbL9t+XLie43mNx2C+4o59SHQFJaW36X57ftD6mcpR08Ecb6kTmDjX3ANKAaBE1mKyQOICo/BqpFgtsZ8TbpMSz8Shw6wS/VaXiXkWG3TGcyA8P0k4SJyBXJoaogCQRO/x0g0gtbEpKdsAeqV+MWhafMUCGelZzvkRQBh0YkWtTGWKqSClLxbNTIU1Vqu6DQDmopjqkriUIgCypQNA9SPV/M5U2e9JJ4d4AdApVbMq7wFApdtoXQDIdQ6ARKAS14/UqmJcYh8iAMqsuTKiNpWjtzsMi2+rb0kBRJYDIGQ5AHQ67NK0rgBcS+YKbYLIqVa6gTpqcrv4TfybwYvPN9DAOF1dZoyDhHIGm2aODwwdBkACRYljvi2ZMjEwstSySn9BdOlAaa7FTFxLzdIBEldGBKAbgKhzq7Y0bgQKP7Im6s0BEHIbdJ2WRuvKPgNARqD5BuIa8eb+y4EpPjsVNymAkrl2sm9TAI2hH2pbtw8JezoAUuK6RQJYfN0CWdvrpFfKyupzQrc/AN0BsFp7sfYB7NgGYNovUGpJr1qrv11h+HC7DHQpgChcbzatCflSACSX/UaA7l0tX/hzJKf0bk1HMuoj/Wl6XwH04Ya1osj84aZ6rBtAg14m02c8H/pSTStzFfqurm0KQAHysEGzjDHMpdliOSyNAHgsI8PiG9mCMVwiPiwBZ+cXwHcYxcxMwXDPMD19x2+op07TfMstyTNgGYCo9Ogqqr8JCtcAK47aMSv6DkObLOSGp2gAhOhmpqG7t1FSAGk4w+T1LfbzL2RZfAOt9xia7JuZwo2hmeZb6KDUpm69jQay+wBoA5vB3ZNMWb2RunYykA/6ZvEZgMSl0bWoMnMN/SWAzrj9SlkBVFOwBy2Ahi7+ntamAErF3W0CDgVQVtroWuu0AbSWhjUSaiiE7OVtg74pqdSGTh1J4uUWxVm6MgLEvfcYbANRndAYmm2QB1s+qy7cO44X37RXIrdsdHVp3kKB/0+AdmFm8Jxutqe5GUgcinqKdl7exShcx6yAAOiX5rSVka0N3M2etsTxt4T7jwBqKhsfWeax54ayXQDUkDX04/pSXSNXNPcB0D3N2cHdQl039KdbWf+OptAYhrk0zMjCHRA1dOdUkEvjB0rhPIF2wYzJGAfAmTHprdstM6JLIkIAsg0andeiec6Z89wCkMxDQccva5Q7Z9xAu4jZfoHi+t060+1IIU3rocnjmVuodcum274oCyHaPDLhtLZpdilhML0NWxoc7Q6ASi0JM8xaN08xoQPeLP64tRkCVHNpDowDBUDN/cGDLtqJZifK0isV+9KcF96yyRQchHzrf/Yi21GmYgDk2E0cF23msafFddWmCQSA9KXqmT2La5LXhd6KddVTl/fOpqBwwtSlsSVg+oVnnfaryEwhkXGhSmPJhnVmSpwgUNtF/IGOrAAU0+4xJFLV8u34A9dVJwNgIXax8FpHI1CzBfC4F18AdLX2uzJpjbw2rH2oVk31lup0DTj0jNsBPAqZexyooTAYAO05xGJOmTboinyp+AaqtwHtQwEYlDflZEdeuRBbyEkA6GAvTZXEHQymX2gWwKs8rdU+3E25elWtMgCU1ViseDaxVlkszWlH8an6PFtAu9wlqWh8OqM2Uw6LZWWMx+3+yZbuTBJwnjZoLlfPU3nrzpuhBPJhe5rL1bMRrAAQ18hdOV8AaPFlD8ofeD54lWFiguW14TtDikq9q3aBvMvBKtbPjZPsymkX357HF8q6krhOMttmmGiT3lj22/OkYOdDxzuwsc+OsEphHJc7W+utjp6614Q3XELJWpc37FS6OZH0IOYk7qFJplxHkUxIYxc6mepbcI9taiDeJ79/M5EYbzrYZSXirPL3qjo/GaXMVDVFi13bncClfx+TyrPJjJwEnUzoQcK5TaC+P4nD26Dp/JNjkQ5rDI7kcamkXzBneqqWVzFbZ6p72nAyrfVNYw1ZKWBHZ3koUxlYgTk0T2LcVNVowwFuoWaE4OAko4vDlxh41QaEm3BQbpgxmoL7xNpLbWJJ2Z5GdRvWQxcjrh19y6LbKnEMJZuHP3E1ZK13TAujQFbPt5UcrC9Us5y42MdCD9zvweoXc8EIUFLes1cU1sdnMVON++BfBI1pPj2IMG/qucXrLge2rDJNqaSbevQp9bvcEsvq+3c9Mdbv6vN39cqSQnVbD63P39Vb6/N39dzy/G29uIy35rvn5e/Xm/p1OaYrayTWSa4O9L8OlXrrxJzoQ/f7zrXF/hZCqxrPp9GMlrk4Tl3gxv1sLAlqZ5CiPRGR901+/8heCRVgvyKpN9u4/5VpZv3A+c8qjvaM3zdrgGQHlshZ1vH2iudv1vO9s99SlDZ37oFZVI/rg3UgLYToC0WaqnGIwZVHVZXgfSsG6eXKPEfhdH21/6Pi+dh0PQxuedU0DWuwCtysPxDnSJlbN5h/WvLc4GvKjA1P7pcwtCBjcg7w0Gh2PE95PNNu5+CqL3NcJit2S93A3X+Li7vFD5+sUu6WZlMBlGKTrH3qrGhSkncdrFzwbOkp84b02XV6s3FJeNN03slxgR0rsV9AXmx5FJMTwt5iVi8AVEQsF2Rykmda6gsE4KYRopChfasgOTPWvWVydzOnH5PTSPf5mhWArUezTSvnnWbLo5iDJfKilz/e9GbMRc/MfTMii786rYMrjq2KZnIINVuLgbsunJbEM7mwJw+bJW4slu321LnuQhXeb/UmGDINQHl2xZqdLb7LsVg3uMXdX3azX7/GiF6pWItwbg4R7p4IODe9ewMgHs7ijnOlXfQfplDCbuu8FECcufidE9xRInxQveuAu/zsIK23deaorjYsztx0ednSyGj56mFfmjtxBkBvtWAJtiabpRuumu2VCpLP6hdtFIx9V7+eh8PAO49Cwlj1riZYry6oGE0Mf134UgDI3AdAI3GcFVq7mvtVMXOpWkXWakhCqwWDVmMvaWprp9X46gJvN9/uLnjwm8YwIcxvSOkY8Wgm1ezrF2CWWvrOCx6axTgXc42W7UAZd2lzen/JQLm1Vbtth7PVm+WS75s56BcstWPdlCl3uyKOG3i3fnG7CO24Ztx78bXozdvN31ypYtx735xLJb5+Pc/k/F9f3tyq/eKKoVuA3udzA3DrfQPwu3BuAH7V0w3AL5O6BfhdOAjwC7FuAH7l1g3AL/ViwMW1YTcAv5jsBuBXn90A/HK1G4Bf33YD8AvibgB+Bd3EDIyLS+5uAH6N3i3gYj/Q3YF+FeDEYu6LywYnHlnT0gw2gG6iLMbuuUH31npsWsnbnVa9sTjENq3v5M35sBUAm1Y6gbZ/boMmH2h7z8YEqAdfeJ6S/7vvtyLdcVkTL77falkn3jX43lQLRS7u57ndPLvfCu/gTRcXYpFbFh6PLg2+G2pZeGI1FBEuLrytfNu8Nei/cWk2+TdPkRTdZZL94hqX1S5u2yFtZlnu1lx84a3dZDZvbsi1lOQ50JAtu0wqdjmZ+wCoVtl4llxv5TzsAEgoLWzhzb3aevdExpzHbRhF50sYbHy7KfAJ4Faly46sfYjRFl12fwP3RboAdAxYXwAqGuMLQEb1ZwPkzo2EuXoO6NyF+QLA9/n4GDr38LwAFN4P1oOx88UqF4CbG9QN0ObtdxDAQFHtAtD4BnUHVMw2uwBkvkHdNtBWCWjQJgw2bga1LOO+Tr4xaKrHXjumxCy7+XVfA0lraVoD3MLLe2qWxZtU+BFA2hHWA7shbP4lPXw5b2XzL8lHnbwfhjKBXSbDvyBGoNyQk65i/75+kF7JfKDCkVenDqWgsr6s4WEAKF1wVdU1SuEdZ5d6lcI0tGgE/60Q5yPOp186837IqmAV7noa/EuSOgJA8umyLK5yY4wPlbFLwjSKaR0Sd+yJHA4zAoUTeadlORdujjaHkvVd30RuWb/IfaRczGn345aEHR12CN4GjQBLLChczL1TIb4PUMwIMDmZ5tIEgITyaY32CvfNm0nJ+gbQGA518Qtb77Esa5Ur2IfVNRcusNpZR1kBdD4EQFfrwd1BvMvjwtDUsCtKM8end6cZ+wXiS6NbH8mFB/uwyri8MHt42C2RO+pOs9TVLmVWf0ZXc5+5xeglgDIQL1+JnKaLQQ/ui2Q3m+y0spueQlkB1HpgdyI7FEBcY1jf7Tx4A5kxvv+FO0D8w+8//PnzX//y0y+//vrHn1+//PPz6///6cvXz//4+uVfv/34/E9//PzD75/j3/4X);lineShape=1;" vertex="1" parent="1">
                    <mxGeometry x="38.32829034627434" y="536.3057429956607" width="823.1099394054149" height="348.3372252773654" as="geometry"/>
                </mxCell>
            </root>
        </mxGraphModel>
    </diagram>
</mxfile>